<svg width="500" height="500" viewBox="0 0 500 500" fill="none" xmlns="http://www.w3.org/2000/svg">
<path d="M39.625 18.0104H457.667C463.76 18.0104 469.609 20.4271 473.917 24.7396C478.224 29.0469 480.646 34.8906 480.646 40.9896V459.031C480.646 465.125 478.224 470.969 473.917 475.276C469.609 479.589 463.76 482.01 457.667 482.01H39.625C33.5312 482.01 27.6875 479.589 23.3802 475.276C19.0677 470.969 16.6458 465.125 16.6458 459.031V40.9896C16.6458 34.8906 19.0677 29.0469 23.3802 24.7396C27.6875 20.4271 33.5312 18.0104 39.625 18.0104Z" fill="url(#paint0_linear_12_12)"/>
<path fill-rule="evenodd" clip-rule="evenodd" d="M143.417 38.3542C84.6354 38.3542 36.9844 86 36.9844 144.781C36.9844 207.224 36.9844 293.589 36.9844 356.026C36.9844 414.807 84.6354 462.458 143.417 462.458C205.854 462.458 292.219 462.458 354.656 462.458C413.438 462.458 461.089 414.807 461.089 356.026C461.089 293.589 461.089 207.224 461.089 144.781C461.089 86 413.438 38.3542 354.656 38.3542H143.417ZM143.417 91.3646H354.656C384.161 91.3646 408.078 115.281 408.078 144.781V356.026C408.078 385.526 384.161 409.443 354.656 409.443H143.417C113.911 409.443 89.9948 385.526 89.9948 356.031C89.9948 356.026 89.9948 144.781 89.9948 144.781C89.9948 115.281 113.911 91.3646 143.417 91.3646Z" fill="white"/>
<path d="M247.896 143.896C265.271 143.896 279.333 157.969 279.333 175.365V239.813C279.333 262.094 261.26 280.182 239.01 280.182H174.63C157.255 280.182 143.193 266.109 143.193 248.714C143.193 231.323 157.255 217.245 174.63 217.245H216.464V175.365C216.464 157.969 230.583 143.896 247.896 143.896Z" fill="white"/>
<path d="M247.49 353.766C230.12 353.766 216.057 339.693 216.057 322.297V257.849C216.057 235.568 234.13 217.479 256.38 217.479H320.76C338.135 217.479 352.193 231.552 352.193 248.948C352.193 266.339 338.135 280.417 320.76 280.417H278.927V322.297C278.927 339.693 264.865 353.766 247.49 353.766Z" fill="white"/>
<path d="M256.38 212.479H279.333V234.813C279.333 257.094 261.26 275.182 239.01 275.182H216.057V252.849C216.057 230.568 234.13 212.479 256.38 212.479Z" fill="white"/>
<defs>
<linearGradient id="paint0_linear_12_12" x1="248.646" y1="18.0104" x2="248.646" y2="482.01" gradientUnits="userSpaceOnUse">
<stop stop-color="#2D9900"/>
<stop offset="1" stop-color="#257C00"/>
</linearGradient>
</defs>
</svg>
